<?xml version="1.0" encoding="UTF-8"?>
<svg id="Calque_1" xmlns="http://www.w3.org/2000/svg" viewBox="0 0 25 25">
  <defs>
    <style>
      .cls-1 {
        fill: #fff;
      }
    </style>
  </defs>
  <path class="cls-1" d="M10.94,24.67c-.57-.04-2.27-.49-3-.79-.82-.33-2.45-1.27-2.77-1.59-.05-.05-.12-.1-.15-.1-.08,0-1.22-1.06-1.61-1.49-1.45-1.6-2.4-3.49-2.94-5.81-.16-.67-.18-.92-.18-2.45s.02-1.77.18-2.41c.27-1.11.73-2.4,1.1-3.1.36-.69.93-1.6,1.11-1.77.06-.06.1-.13.1-.16,0-.05.35-.45.92-1.05,1-1.05,2.11-1.85,3.42-2.48,1.17-.56,1.41-.65,2.74-.99.79-.2.89-.21,2.63-.21,1.22,0,1.91.03,2.11.09.16.05.53.14.82.21,2.6.59,5.17,2.31,6.9,4.6.27.36.52.71.54.78.02.06.08.16.13.22.11.14.7,1.28.83,1.63.24.65.53,1.56.61,1.97.05.24.13.56.17.7.05.16.08.93.09,1.97,0,1.8-.07,2.28-.5,3.67-.27.86-.63,1.73-.71,1.69-.03-.01-.61-.3-1.29-.63-.68-.34-1.28-.62-1.32-.62-.12,0-.09-.25.07-.57.42-.85.7-2.25.7-3.43,0-3.57-2-6.75-5.18-8.27-1.44-.69-2.28-.88-3.89-.89-1.22,0-1.88.09-2.86.39-.6.19-2.1.89-2.26,1.06-.02.02-.16.13-.3.22-.42.29-.67.52-1.22,1.09-.57.59-.59.61-.85.99-.1.14-.2.27-.22.3-.16.15-.85,1.59-1.06,2.22-.59,1.77-.59,3.86,0,5.64.22.64.9,2.08,1.06,2.22.02.02.13.16.22.3.39.55,1.37,1.58,1.82,1.89.12.08.3.22.4.3.22.19,1.25.77,1.35.77.03,0,.17.06.3.13.74.4,2.25.71,3.51.71,1.27,0,2.76-.3,3.62-.75.12-.06.22-.1.22-.08.71,1.46,1.23,2.58,1.25,2.7.01.1-.06.18-.24.27-.27.13-1.5.53-1.89.62-.12.02-.36.07-.52.12-.74.19-2.7.26-3.97.16h0Z"/>
  <path class="cls-1" d="M11.42,18.53c-2.51-.46-4.46-2.38-4.97-4.87-.39-1.97.24-4.05,1.68-5.47,2.18-2.17,5.52-2.41,8.03-.59.31.22,1.21,1.16,1.42,1.48.72,1.08,1.15,2.61,1.05,3.74-.11,1.26-.41,2.13-1.06,3.12-.79,1.22-2.25,2.22-3.69,2.52-.78.17-1.77.2-2.46.07ZM13.76,15.2c.49-.23,1.15-.82,1.31-1.16.37-.82.39-.89.39-1.56s-.02-.74-.39-1.56c-.16-.35-.82-.93-1.33-1.17-.47-.23-.56-.24-1.23-.24s-.77.02-1.22.23c-.65.3-1.21.85-1.54,1.52-.22.47-.24.57-.24,1.22s.02.76.24,1.22c.75,1.55,2.51,2.21,4.01,1.49Z"/>
  <path class="cls-1" d="M18.99,22.26c-.62-.33-1.03-.81-1.23-1.47-.15-.51-.15-.57,0-1.13.23-.77.79-1.32,1.59-1.57.51-.16.57-.16,1.05,0,.6.18,1.15.61,1.44,1.08.3.49.31,1.62.02,2.1-.45.75-1.05,1.14-1.88,1.2-.44.04-.61,0-.99-.21h0Z"/>
</svg>