<?xml version="1.0" encoding="UTF-8"?>
<svg id="Calque_1" xmlns="http://www.w3.org/2000/svg" viewBox="0 0 2000 2000">
  <defs>
    <style>
      .cls-1 {
        fill: #fff;
      }
    </style>
  </defs>
  <g>
    <path class="cls-1" d="M1508,1168.3c-7.7-.6-30.6-6.6-40.4-10.6-11-4.5-33.1-17.1-37.4-21.4-.7-.7-1.6-1.3-2-1.3-1.1-.1-16.5-14.3-21.7-20.1-19.5-21.6-32.3-47.1-39.6-78.4-2.1-9-2.4-12.4-2.4-33s.3-23.9,2.4-32.5c3.7-14.9,9.9-32.4,14.8-41.8,4.9-9.3,12.5-21.6,14.9-23.9.8-.8,1.4-1.7,1.4-2.1,0-.7,4.7-6.1,12.4-14.2,13.5-14.2,28.5-25,46.1-33.4,15.8-7.5,19-8.7,37-13.3,10.6-2.7,12-2.8,35.5-2.8,16.4,0,25.8.4,28.5,1.2,2.2.7,7.2,1.9,11,2.8,35,8,69.7,31.2,93,62,3.7,4.9,7,9.6,7.3,10.5.3.8,1.1,2.2,1.8,3,1.5,1.9,9.4,17.3,11.2,22,3.2,8.7,7.1,21,8.2,26.5.7,3.3,1.7,7.6,2.3,9.5.7,2.1,1.1,12.5,1.2,26.5,0,24.3-.9,30.8-6.7,49.5-3.6,11.6-8.5,23.3-9.6,22.8-.4-.2-8.2-4-17.4-8.5-9.2-4.6-17.2-8.3-17.8-8.3-1.6,0-1.2-3.4.9-7.7,5.6-11.4,9.4-30.4,9.4-46.3,0-48.1-26.9-91-69.8-111.5-19.4-9.3-30.8-11.9-52.5-12-16.5,0-25.3,1.2-38.5,5.2-8.1,2.5-28.3,12-30.5,14.3-.3.3-2.1,1.7-4,3-5.6,3.9-9,7-16.5,14.7-7.7,7.9-8,8.2-11.5,13.3-1.3,1.9-2.7,3.7-3,4-2.2,2-11.4,21.4-14.3,30-8,23.9-8,52.1,0,76,2.9,8.6,12.1,28,14.3,30,.3.3,1.7,2.1,3,4,5.2,7.4,18.5,21.3,24.5,25.5,1.6,1.1,4,2.9,5.4,4.1,3,2.5,16.9,10.4,18.2,10.4.4,0,2.3.8,4.1,1.8,10,5.4,30.4,9.6,47.3,9.6,17.1.1,37.2-4.1,48.8-10.1,1.6-.8,3-1.3,3-1.1,9.6,19.7,16.6,34.8,16.9,36.4.2,1.3-.8,2.4-3.2,3.6-3.6,1.8-20.2,7.2-25.5,8.3-1.6.3-4.8,1-7,1.6-10,2.5-36.4,3.5-53.5,2.2h0Z"/>
    <path class="cls-1" d="M1193.6,1156c-16.4-2.6-35.7-10.9-49.8-21.5-41.3-31.1-56.6-86.6-36.9-134.3,7.6-18.3,22-36.2,38.8-48.5,9.4-6.8,25.5-14.4,36.8-17.3,12.3-3.2,32-4.3,44.6-2.5,17.9,2.6,39.7,11.4,51.3,20.8,3.2,2.7,7.1,5.9,8.7,7.2l2.9,2.4v-125.3h45v316h-45v-27l-7.2,5.9c-13.6,11-27.3,17.7-45.1,22.2-9.3,2.4-34,3.4-44.1,1.9h0ZM1228.8,1115c23.2-5.6,43.6-21,53.5-40.6,7.5-14.8,9.4-33.4,4.8-48.4-4-13-8.6-20.5-19.1-31.1-8.4-8.5-10.7-10.2-20-14.7-13.2-6.5-19.7-8.3-33.1-8.9-13.5-.7-22.9,1.2-35.8,7.3-8.2,3.8-10.7,5.7-18.1,13.2-6.9,6.9-9.6,10.6-12.9,17.2-12.2,24.9-10.7,54.1,4.1,76.7,9,13.9,27,26.4,42.8,29.7,9.7,2.1,24,1.9,33.8-.4h0Z"/>
    <path class="cls-1" d="M601,996v-159h45l.1,75.3c.1,41.3,0,79,0,83.7l-.2,8.5,4.3-4.5c2.3-2.5,18.3-19.7,35.6-38.2l31.4-33.7,28.7-.3c15.7-.2,28.7-.2,28.9-.1.2,0-19.6,21.3-44,47.3-24.4,25.9-44.5,47.5-44.6,48.1-.2.5,2.7,4.8,6.5,9.7,3.9,4.8,26.2,34.2,49.7,65.5l42.7,56.7h-60.1l-34.3-48.2c-18.9-26.6-35.2-49.6-36.2-51.1l-1.8-2.8-2.8,2.7-2.9,2.8v96.6h-46v-159h0Z"/>
    <path class="cls-1" d="M923,995.5v-159.5h44v319h-44v-159.5Z"/>
    <path class="cls-1" d="M829,1042.5v-111.5h45v223h-45v-111.5Z"/>
    <path class="cls-1" d="M1017,1042.5v-111.5h45v223h-45v-111.5Z"/>
    <path class="cls-1" d="M1612.5,1121.5c-6.6-3.5-10.9-8.6-13-15.5-1.6-5.4-1.6-6,.1-11.9,2.4-8.1,8.3-13.9,16.8-16.6,5.4-1.7,6-1.7,11.1-.1,6.3,1.9,12.2,6.4,15.2,11.4,3.2,5.2,3.3,17.1.2,22.2-4.8,7.9-11.1,12-19.9,12.7-4.6.4-6.4,0-10.5-2.2h0Z"/>
    <path class="cls-1" d="M830,858v-21h43v42h-43v-21Z"/>
    <path class="cls-1" d="M1019,858v-21h42v42h-42v-21Z"/>
  </g>
  <g>
    <path class="cls-1" d="M446,1146.9c-8.3-2.2-18.3-6-18.8-7.1-.2-.5-.9-.8-1.4-.8-2.6,0-15.8-9.3-21.5-15.2-11-11.1-18.1-22.3-22.8-35.8-1.8-5.2-5.5-25-5.5-29.7v-3.3h21.4c17.6,0,21.5.3,21.9,1.4.3.8,1.1,5.2,1.7,9.8.6,4.6,1.6,8.7,2.1,9.2.5.6.9,1.7.9,2.5.1.9.8,3.2,1.8,5.1,8,16.2,23.1,27,37.9,27h5.3v39l-7.7-.1c-4.4,0-11.1-.9-15.3-2Z"/>
    <path class="cls-1" d="M1514.5,1085.5c-33.8-6.2-60.2-32.1-67-65.7-5.3-26.6,3.3-54.6,22.6-73.8,29.4-29.2,74.4-32.5,108.3-8,4.2,3,16.3,15.6,19.1,20,9.7,14.6,15.5,35.2,14.2,50.4-1.5,17-5.5,28.7-14.3,42.1-10.7,16.4-30.4,29.9-49.7,34-10.5,2.3-23.8,2.7-33.2,1ZM1546,1040.6c6.6-3.1,15.5-11,17.7-15.6,5-11,5.3-12,5.3-21s-.3-10-5.3-21c-2.2-4.7-11.1-12.5-18-15.8-6.3-3.1-7.6-3.3-16.6-3.3s-10.4.3-16.5,3.1c-8.8,4-16.3,11.4-20.7,20.5-3,6.3-3.3,7.7-3.3,16.5s.3,10.2,3.3,16.5c10.1,20.9,33.9,29.8,54.1,20.1Z"/>
    <path class="cls-1" d="M519.6,1050.8c-.3-3.4-1.1-6.7-1.6-7.2-.6-.6-1-1.7-1-2.6,0-2.7-4-9.1-8.8-14.2-5.2-5.6-14.8-11.3-24.2-14.7-3.6-1.3-7.9-3-9.7-3.7-1.7-.8-3.5-1.4-4.1-1.4-.5,0-2.3-.7-3.8-1.5-1.6-.8-3.6-1.5-4.4-1.5-.9,0-2-.4-2.5-.8-.6-.5-3.9-1.9-7.5-3.2-14.2-4.9-31-14-40.1-21.7-16.3-13.6-21.6-23.9-26-49.8-1.1-6.5-.5-24.2,1-29,4.1-13.2,6.1-18.1,10.4-25.5,4.8-8.1,14.1-18.4,21.7-24.2,8.7-6.5,21-11.9,33-14.4,7.8-1.7,29.1-1.8,35.7-.3,17.4,4,27.2,8.1,37.1,15.3,5.3,3.9,17,16.1,18.2,18.9.3.7,1.7,3,3.1,5.2,5.6,8.6,10.3,26.9,10.9,41.8,0,.4-9.6.7-21.4.7h-21.3l-.6-5.3c-1.2-12.3-6-21.4-14.9-28.9-6.3-5.2-9.2-6.6-17.8-8.4-8.2-1.8-15.1-1.8-21.7,0-5.5,1.5-13.3,5.4-13.3,6.8,0,.4-.4.8-1,.8-2,0-9.5,9.2-12.2,15-5,10.8-5.9,20.2-2.9,29.9,4,12.9,14.2,22,32.5,29.1,13.6,5.3,14.8,5.8,24.1,9,14.6,5.1,27.6,10.8,35,15.3,7.7,4.6,17.4,13.2,24,21.2,9.2,11.2,16,29.6,17.2,46.3l.6,9.2h-43l-.7-6.2Z"/>
  </g>
</svg>